<svg width="32" height="28" viewBox="0 0 32 28" fill="none" xmlns="http://www.w3.org/2000/svg">
<path d="M12 25.6667C12.7364 25.6667 13.3333 25.1443 13.3333 24.5C13.3333 23.8557 12.7364 23.3333 12 23.3333C11.2636 23.3333 10.6667 23.8557 10.6667 24.5C10.6667 25.1443 11.2636 25.6667 12 25.6667Z" stroke="black" stroke-width="2" stroke-linecap="round" stroke-linejoin="round"/>
<path d="M26.6666 25.6667C27.403 25.6667 28 25.1443 28 24.5C28 23.8557 27.403 23.3333 26.6666 23.3333C25.9303 23.3333 25.3333 23.8557 25.3333 24.5C25.3333 25.1443 25.9303 25.6667 26.6666 25.6667Z" stroke="black" stroke-width="2" stroke-linecap="round" stroke-linejoin="round"/>
<path d="M1.33334 1.16666H6.66668L10.24 16.7883C10.3619 17.3255 10.6959 17.8079 11.1834 18.1513C11.6709 18.4947 12.2809 18.6772 12.9067 18.6667H25.8667C26.4924 18.6772 27.1024 18.4947 27.59 18.1513C28.0775 17.8079 28.4114 17.3255 28.5333 16.7883L30.6667 6.99999H8.00001" stroke="black" stroke-width="2" stroke-linecap="round" stroke-linejoin="round"/>
</svg>
