<svg width="30" height="30" viewBox="0 0 30 30" fill="none" xmlns="http://www.w3.org/2000/svg">
<g clip-path="url(#clip0_12_32)">
<path d="M6.14754 30C9.54273 30 12.2951 27.292 12.2951 23.9516C12.2951 20.6112 9.54273 17.9032 6.14754 17.9032C2.75235 17.9032 0 20.6112 0 23.9516C0 27.292 2.75235 30 6.14754 30Z" fill="black"/>
<path d="M6.14754 30C9.54273 30 12.2951 27.292 12.2951 23.9516C12.2951 20.6112 9.54273 17.9032 6.14754 17.9032C2.75235 17.9032 0 20.6112 0 23.9516C0 27.292 2.75235 30 6.14754 30Z" fill="black"/>
<path d="M6.14754 30C9.54273 30 12.2951 27.292 12.2951 23.9516C12.2951 20.6112 9.54273 17.9032 6.14754 17.9032C2.75235 17.9032 0 20.6112 0 23.9516C0 27.292 2.75235 30 6.14754 30Z" fill="black"/>
</g>
<g clip-path="url(#clip1_12_32)">
<path d="M23.8525 30C27.2476 30 30 27.292 30 23.9516C30 20.6112 27.2476 17.9032 23.8525 17.9032C20.4573 17.9032 17.7049 20.6112 17.7049 23.9516C17.7049 27.292 20.4573 30 23.8525 30Z" fill="black"/>
<path d="M23.8525 30C27.2476 30 30 27.292 30 23.9516C30 20.6112 27.2476 17.9032 23.8525 17.9032C20.4573 17.9032 17.7049 20.6112 17.7049 23.9516C17.7049 27.292 20.4573 30 23.8525 30Z" fill="black"/>
<path d="M23.8525 30C27.2476 30 30 27.292 30 23.9516C30 20.6112 27.2476 17.9032 23.8525 17.9032C20.4573 17.9032 17.7049 20.6112 17.7049 23.9516C17.7049 27.292 20.4573 30 23.8525 30Z" fill="black"/>
</g>
<g clip-path="url(#clip2_12_32)">
<path d="M6.14754 12.0968C9.54273 12.0968 12.2951 9.38882 12.2951 6.04839C12.2951 2.70796 9.54273 0 6.14754 0C2.75235 0 0 2.70796 0 6.04839C0 9.38882 2.75235 12.0968 6.14754 12.0968Z" fill="black"/>
<path d="M6.14754 12.0968C9.54273 12.0968 12.2951 9.38882 12.2951 6.04839C12.2951 2.70796 9.54273 0 6.14754 0C2.75235 0 0 2.70796 0 6.04839C0 9.38882 2.75235 12.0968 6.14754 12.0968Z" fill="black"/>
<path d="M6.14754 12.0968C9.54273 12.0968 12.2951 9.38882 12.2951 6.04839C12.2951 2.70796 9.54273 0 6.14754 0C2.75235 0 0 2.70796 0 6.04839C0 9.38882 2.75235 12.0968 6.14754 12.0968Z" fill="black"/>
</g>
<g clip-path="url(#clip3_12_32)">
<path d="M23.8525 12.0968C27.2476 12.0968 30 9.38882 30 6.04839C30 2.70796 27.2476 0 23.8525 0C20.4573 0 17.7049 2.70796 17.7049 6.04839C17.7049 9.38882 20.4573 12.0968 23.8525 12.0968Z" fill="#0F0F0F"/>
<path d="M23.8525 12.0968C27.2476 12.0968 30 9.38882 30 6.04839C30 2.70796 27.2476 0 23.8525 0C20.4573 0 17.7049 2.70796 17.7049 6.04839C17.7049 9.38882 20.4573 12.0968 23.8525 12.0968Z" fill="#0F0F0F"/>
<path d="M23.8525 12.0968C27.2476 12.0968 30 9.38882 30 6.04839C30 2.70796 27.2476 0 23.8525 0C20.4573 0 17.7049 2.70796 17.7049 6.04839C17.7049 9.38882 20.4573 12.0968 23.8525 12.0968Z" fill="#0F0F0F"/>
</g>
<defs>
<clipPath id="clip0_12_32">
<rect width="12.2951" height="12.0968" fill="white" transform="translate(0 17.9032)"/>
</clipPath>
<clipPath id="clip1_12_32">
<rect width="12.2951" height="12.0968" fill="white" transform="translate(17.7049 17.9032)"/>
</clipPath>
<clipPath id="clip2_12_32">
<rect width="12.2951" height="12.0968" fill="white"/>
</clipPath>
<clipPath id="clip3_12_32">
<rect width="12.2951" height="12.0968" fill="white" transform="translate(17.7049)"/>
</clipPath>
</defs>
</svg>
